<?xml version="1.0" encoding="utf-8"?>
<!-- Generator: Adobe Illustrator 23.1.0, SVG Export Plug-In . SVG Version: 6.00 Build 0)  -->
<svg version="1.1" id="Layer_1" xmlns="http://www.w3.org/2000/svg" xmlns:xlink="http://www.w3.org/1999/xlink" x="0px" y="0px"
	 viewBox="0 0 257 303" style="enable-background:new 0 0 257 303;" xml:space="preserve">
<style type="text/css">
	.st0{fill:none;stroke:#1C7690;stroke-width:5;stroke-linecap:round;stroke-linejoin:round;stroke-miterlimit:10;}
</style>
<g>
	<path class="st0" d="M244.47,245.42c4.45,31.52-21.88,29.29-21.88,29.29s-121.62,0-151.28,9.64c-16.31,5.3-22.98-3.3-21.36-11.13
		c0.08-0.37,0.17-0.74,0.29-1.11c1.85-5.95,8.59-11.03,19.59-8.52c21.97,5.02,137.94-13.86,173.08-19.78
		c6.38-1.08,10.1-1.72,10.1-1.72S216.66,13.68,209.99,7S14.95,24.06,14.95,24.06l34.11,254.18"/>
	<path class="st0" d="M13.47,25.17c0,0-10.75,10.01-5.19,49.32S32.01,261,32.01,261s0,32.26,25.96,35.97s192.44-17.43,192.44-17.43
		l-3.34-24.84"/>
	<polygon class="st0" points="62.41,52.61 174.76,39.26 180.7,84.13 67.98,99.7 	"/>
	<line class="st0" x1="94.3" y1="136.41" x2="167.72" y2="126.77"/>
	<line class="st0" x1="79.84" y1="164.22" x2="188.11" y2="149.76"/>
</g>
</svg>
