<?xml version="1.0" encoding="utf-8"?>
<!-- Generator: Adobe Illustrator 23.1.0, SVG Export Plug-In . SVG Version: 6.00 Build 0)  -->
<svg version="1.1" id="Layer_1" xmlns="http://www.w3.org/2000/svg" xmlns:xlink="http://www.w3.org/1999/xlink" x="0px" y="0px"
	 viewBox="0 0 274 165" style="enable-background:new 0 0 274 165;" xml:space="preserve">
<style type="text/css">
	.st0{fill:#BEBEBE;}
</style>
<g>
	<path class="st0" d="M18.2,57.41c28.15,27.92,56.14,56,84.3,83.9c8.99,8.91,16.93,19.22,29.49,23.73c3,0,6,0,9,0
		c10.59-2.87,17.53-10.7,24.9-18.07c30.13-30.16,60.32-60.26,90.6-90.28c7.07-7.01,14.26-13.83,17.49-23.63c0-3,0-6,0-9
		c-1.67-3.32-2.41-7.02-4.47-10.23C263.9,5.11,255.98,1,245.67,1C173.39,1.03,101.11,1,28.83,1.02c-14.76,0-24.04,7.39-27.94,21.99
		C0.78,23.41,0.3,23.72,0,24.07c0,3,0,6,0,9C3.38,43.19,10.9,50.18,18.2,57.41z M242.55,32.2c-33.92,33.93-67.89,67.8-101.69,101.84
		c-3.08,3.1-4.59,3.17-7.71,0.02C99.35,100.02,65.39,66.14,31.44,32.24c-1.05-1.05-2.36-1.86-2.98-3.75c72.28,0,144.55,0,217.64,0
		C244.6,30.05,243.6,31.15,242.55,32.2z"/>
</g>
</svg>
