<?xml version="1.0" encoding="utf-8"?>
<!-- Generator: Adobe Illustrator 23.1.0, SVG Export Plug-In . SVG Version: 6.00 Build 0)  -->
<svg version="1.1" id="Layer_1" xmlns="http://www.w3.org/2000/svg" xmlns:xlink="http://www.w3.org/1999/xlink" x="0px" y="0px"
	 viewBox="0 0 313 73" style="enable-background:new 0 0 313 73;" xml:space="preserve">
<style type="text/css">
	.st0{fill:#D8D8D8;}
	.st1{fill:#AFAFAF;}
	.st2{fill:#BFBFBF;}
	.st3{font-family:'NotoSansKR-Medium-KSCpc-EUC-H';}
	.st4{font-size:16.8781px;}
	.st5{fill:#E6E6E6;}
	.st6{font-size:33.7423px;}
	.st7{fill:#A0A0A0;}
</style>
<g>
	<path class="st0" d="M44.94,4.08c14.81,4.46,24.68,18.22,24.2,33.7c-0.51,16.19-12.99,29.97-29,32.33
		C21.75,72.81,4.37,60.56,1.41,41.75c-1.46-9.29,0.61-17.91,6.43-25.46c0.02,2.58,0.12,5.16,0.05,7.74
		c-0.04,1.46,0.46,1.99,1.93,2.21c5.49,0.84,10.36,2.96,14.02,7.34c-0.01,3.61-0.02,7.23-0.03,10.84c-4.58-3.75-9.8-5.89-15.81-6.48
		c0,3.35,0,6.53,0,9.86c6.13,0.86,11.62,2.95,15.81,7.66c0,3.57,0,7.14,0,11.16c4.29-5.2,9.85-6.83,15.7-7.8c0-3.33,0-6.52,0-9.85
		c-0.82,0.1-1.52,0.15-2.21,0.27c-5.03,0.9-9.58,2.85-13.48,6.2c-0.01-3.69-0.02-7.37-0.03-11.06c2.55-1.79,4.94-3.89,7.69-5.28
		c2.42-1.22,5.24-1.64,8-2.44c0-3.07,0-6.32,0-9.68c-5.94,0.78-11.27,2.58-15.67,6.62c0.01-3.73,0.02-7.47,0.03-11.2
		c4.16-4.74,9.7-6.7,15.67-7.55c0-3.41,0-6.61,0-9.92c-5.42,0.76-10.45,2.18-14.58,5.78c-0.62,0.54-1.09,1.59-1.11,2.42
		c-0.11,3.09,0,6.18,0.02,9.27c-0.48-0.3-0.99-0.55-1.43-0.91c-4.21-3.45-9.12-5.02-14.48-5.36C13.01,9.25,19.84,5.15,28.12,3.3
		C28.12,3.3,35.94,1.54,44.94,4.08z"/>
	<path class="st1" d="M23.85,22.4c-0.01,3.73-0.02,7.47-0.03,11.2c0,0,0.02-0.02,0.02-0.02c-3.66-4.39-8.53-6.5-14.02-7.34
		c-1.47-0.22-1.97-0.75-1.93-2.21c0.08-2.58-0.02-5.16-0.05-7.74c0,0,0-0.11,0-0.11s0.1-0.04,0.1-0.04
		c5.36,0.34,10.27,1.91,14.48,5.36C22.86,21.85,23.37,22.1,23.85,22.4C23.85,22.4,23.85,22.4,23.85,22.4z"/>
	<path class="st1" d="M23.79,44.38c0.01,3.69,0.02,7.37,0.03,11.06c0,0-0.01,0.02-0.01,0.02c-4.19-4.71-9.68-6.79-15.81-7.66
		c0-3.33,0-6.52,0-9.86c6.01,0.59,11.23,2.73,15.81,6.48C23.81,44.42,23.79,44.38,23.79,44.38z"/>
	<g>
		<text transform="matrix(1 0 0 1 76.8531 15.1124)" class="st2 st3 st4">대전광역시교육청</text>
	</g>
	<text transform="matrix(1 0 0 1 76.8533 49.3756)" class="st5 st3 st6">한밭교육박물관</text>
	<text transform="matrix(1 0 0 1 76.8533 71.826)" class="st7 st3 st4">Hanbat Museum of Education</text>
</g>
</svg>
