<?xml version="1.0" encoding="utf-8"?>
<!-- Generator: Adobe Illustrator 23.1.0, SVG Export Plug-In . SVG Version: 6.00 Build 0)  -->
<svg version="1.1" id="Layer_1" xmlns="http://www.w3.org/2000/svg" xmlns:xlink="http://www.w3.org/1999/xlink" x="0px" y="0px"
	 viewBox="0 0 493 432" style="enable-background:new 0 0 493 432;" xml:space="preserve">
<style type="text/css">
	.st0{fill:#1C7690;}
</style>
<g>
	<path class="st0" d="M246.46,1.17c49.49,0,98.98,0,148.47,0.01c10.66,0,15.59,4.81,15.59,15.25c0.01,61.58,0,123.16-0.01,184.74
		c0,9.68-5.28,14.93-15.05,14.93c-99.31,0.02-198.63,0.02-297.94,0.01c-9.66,0-15.08-5.38-15.09-14.94
		c-0.01-61.74-0.01-123.49,0.01-185.23c0-9.79,5.09-14.76,15.05-14.76C147.15,1.16,196.81,1.17,246.46,1.17z M191.73,135.39
		c0-2.69,0-4.47,0-6.26c0-32.01-0.1-64.02,0.13-96.03c0.03-4.68-1.46-5.64-5.87-5.6c-23.82,0.2-47.64,0.17-71.46,0.01
		c-3.83-0.03-5.06,0.88-5.05,4.85c0.14,50.73,0.12,101.45,0.01,152.18c-0.01,3.68,0.7,5,4.83,4.99
		c88.12-0.13,176.24-0.12,264.36-0.03c3.59,0,4.81-0.69,4.8-4.53c-0.14-50.89-0.14-101.78,0.01-152.67
		c0.01-4.08-1.38-4.81-5.11-4.78c-23.99,0.14-47.98,0.17-71.96-0.02c-4.12-0.03-5.32,1.01-5.3,5.16
		c0.17,32.17,0.09,64.35,0.09,96.53c0,1.77,0,3.54,0,5.88c-1.95-0.82-3.46-1.38-4.91-2.08c-14.15-6.92-28.45-13.58-42.36-20.96
		c-5.45-2.89-9.6-2.82-15.04,0.03C223.67,120.06,208.07,127.38,191.73,135.39z M219.24,91.96c7.64-3.8,14.62-6.87,21.16-10.67
		c4.47-2.6,8.09-2.2,12.38,0.18c6.61,3.66,13.51,6.8,20.92,10.47c0-21.06-0.02-41.37,0.02-61.69c0-2.28-1.22-2.68-3.14-2.67
		c-16.15,0.03-32.31,0.03-48.46-0.01c-2.16-0.01-2.92,0.85-2.91,2.92C219.25,50.67,219.24,70.84,219.24,91.96z"/>
	<path class="st0" d="M180.96,431.85c-56.98,0-113.96,0-170.95,0c-7.67,0-9.5-1.77-9.52-9.13c-0.01-3.28-0.05-6.57,0.01-9.85
		c0.09-4.76,2.44-7.21,7.25-7.6c1.49-0.12,3-0.03,4.5-0.03c111.13,0,222.26-0.07,333.39,0.11c11.43,0.02,20.96-3.25,29.79-10.3
		c27.16-21.71,54.58-43.09,81.9-64.6c7.73-6.09,10.19-14.4,6.58-22.16c-4.55-9.79-15.49-13.81-25.13-8.65
		c-10,5.35-18.01,13.45-26.96,20.26c-9.88,7.53-19.49,15.39-29.3,23.01c-7.04,5.46-15.16,8.17-24.09,8.18
		c-50.48,0.05-100.97,0.04-151.45,0.01c-7.97,0-13.36-4-14.72-10.65c-1.36-6.59,1.79-12.34,8.16-15.15
		c2.23-0.98,4.54-0.91,6.86-0.91c23.83-0.01,47.65,0.03,71.48-0.03c12.02-0.03,19.53-5.8,22.05-16.69c2.5-10.79-5.83-22.39-17-23.57
		c-2.31-0.25-4.66-0.29-6.98-0.29c-38.99-0.01-77.98,0.21-116.96-0.11c-15.68-0.13-29.31,4.22-41.59,13.79
		c-10.83,8.45-22.16,16.28-33.19,24.49c-2.11,1.57-4.19,2.28-6.84,2.27c-22.66-0.08-45.32-0.03-67.98-0.06
		c-7.71-0.01-9.77-2.1-9.79-9.61c0-2.3,0-4.6,0-6.9c0-8.77,1.26-10.04,10-10.05c18.83-0.01,37.66-0.1,56.48,0.07
		c4.21,0.04,7.57-0.94,10.93-3.57c8.85-6.95,17.97-13.58,27.07-20.22c14.57-10.65,30.72-16.71,49.11-16.66
		c42.65,0.13,85.31-0.35,127.95,0.27c32.48,0.47,54.36,32.65,43.31,62.65c-1.44,3.9-0.38,4.34,3.19,4.27
		c9.16-0.17,18.33-0.23,27.49,0.01c4.83,0.13,8.6-1.5,12.29-4.4c17.56-13.84,34.88-28,52.97-41.13
		c18.96-13.76,46.05-9.97,60.71,7.67c16.77,20.17,12.94,48.29-6.54,63.72c-27.52,21.8-55.27,43.31-82.73,65.18
		c-14.04,11.18-29.56,16.66-47.81,16.52C290.27,431.58,235.61,431.85,180.96,431.85z"/>
</g>
</svg>
