<?xml version="1.0" encoding="utf-8"?>
<!-- Generator: Adobe Illustrator 23.1.0, SVG Export Plug-In . SVG Version: 6.00 Build 0)  -->
<svg version="1.1" id="Layer_1" xmlns="http://www.w3.org/2000/svg" xmlns:xlink="http://www.w3.org/1999/xlink" x="0px" y="0px"
	 viewBox="0 0 493 432" style="enable-background:new 0 0 493 432;" xml:space="preserve">
<style type="text/css">
	.st0{fill:#1C7690;}
</style>
<g>
	<path class="st0" d="M2,166.1c7.01-31.79,34.86-54.43,67.54-54.55c36.55-0.13,73.09-0.03,109.64-0.03c6.36,0,6.35-0.01,4.07-5.96
		c-6.79-17.72-9.5-35.94-4.55-54.48c7.31-27.36,26-42.84,53.18-48.8c2.32-0.51,4.89-0.21,6.72-2.21c4.5,0,9.01,0,13.51,0
		c1.3,1.76,3.44,1.4,5.14,1.71c15.24,2.78,26.05,11.83,34.26,24.31c5.56,8.45,10.47,17.36,14.07,26.82
		c8.65,22.71,23.65,41.09,39.44,58.96c7.95,8.99,16.21,17.65,26.07,24.66c2.5,1.78,3.88,1.86,5.84-0.74
		c6.19-8.23,14.82-11.78,24.91-11.84c19.67-0.1,39.34-0.17,59.01,0c18.31,0.16,30.26,11.09,32.43,29.23
		c-0.06,22.32-0.15,44.64-0.16,66.96c-0.03,49.15,0.01,98.29-0.01,147.44c-0.01,20.68-12.57,33.29-33.29,33.36
		c-19.13,0.07-38.27,0.06-57.4-0.04c-7.89-0.04-15.26-2.07-21.24-7.51c-2.61-2.37-5.15-1.61-7.85-0.8
		c-9.19,2.76-17.83,6.88-26.45,11.02c-13.68,6.58-27.02,13.92-41.37,19.04c-16.72,5.97-33.83,9.57-51.74,8.9
		c-9.55-0.36-19.13-0.03-28.69-0.01c-12.47-1.74-24.79-4.04-36.06-10.07c-25.68-13.74-37.11-36.05-38.21-64.29
		c-0.2-5.25-1.36-9.43-4.4-13.9c-9.51-14-14.13-29.68-12.8-46.75c0.52-6.64,0.1-12.67-3.27-18.85c-4.13-7.56-6.2-16.08-6.64-24.78
		c-0.23-4.59-1.83-6.43-6.82-6.32c-15.93,0.33-31.88,0.17-47.82,0.1c-33.47-0.14-60.55-22.44-67.23-55.14
		c-0.47-2.29-0.07-4.92-1.93-6.84c0-4.13,0-8.26,0-12.39C1.69,170.62,1.53,168.23,2,166.1z M153.9,241.61
		c-1,13.68,3.03,25.54,12.13,35.6c2.27,2.51,2.45,4.41,1.2,7.38c-7.35,17.59-2.15,38.28,12.62,50.28c2.32,1.88,2.24,3.75,1.96,6.38
		c-1.29,12.39-1.49,24.68,4.37,36.28c4.15,8.22,10.31,14.2,18.75,17.81c8,3.43,16.3,5.61,25.07,5.61c16.47,0,33.04,1.54,49.31-2.26
		c15.44-3.6,29.65-10.45,43.87-17.22c14.37-6.85,28.32-14.68,43.89-18.69c2.5-0.64,3.34-2.07,3.2-4.45c-0.08-1.31,0-2.63,0-3.94
		c0-58.9-0.06-117.8,0.1-176.7c0.01-5.05-1.02-8.04-6.1-10.23c-9.9-4.28-18.08-11.35-25.84-18.71
		c-20.1-19.07-37.92-40.07-51.61-64.24c-5.53-9.76-9.59-20.34-14.4-30.5c-2.65-5.6-5.55-11.17-9.93-15.59
		c-9.91-10.01-21.59-8.1-32.98-3.62c-17.86,7.03-25.8,24.27-21.95,45.43c2.26,12.42,7.75,23.41,14.09,34.09
		c4.11,6.93,8.74,13.58,11.38,21.28c2,5.82,1.6,6.42-4.58,6.42c-52.52,0.01-105.05-0.03-157.57,0
		c-16.61,0.01-31.43,9.83-37.19,24.42c-9.19,23.3,8.78,49.56,34.36,49.75c29.26,0.22,58.53,0.05,87.79,0.05c2.05,0,4.1,0,7.38,0
		C157.6,224.57,154.56,232.6,153.9,241.61z M400.68,364.26c-0.03,4.96,1.3,6.37,6.28,6.28c16.69-0.31,33.38-0.22,50.07-0.06
		c3.88,0.04,5.66-0.62,5.65-5.15c-0.14-68.64-0.12-137.28-0.02-205.92c0.01-3.94-1.21-5.14-5.12-5.1
		c-17.06,0.17-34.13,0.22-51.2-0.04c-4.55-0.07-5.64,1.43-5.63,5.76c0.15,34.13,0.09,68.26,0.09,102.4
		C400.8,296.37,400.9,330.32,400.68,364.26z"/>
	<path class="st0" d="M431.7,358.27c10.55,0.06,18.67-7.84,18.74-18.24c0.08-11.31-7.71-19.4-18.75-19.48
		c-10.54-0.07-18.63,7.85-18.74,18.33C412.84,350.24,420.54,358.21,431.7,358.27z"/>
</g>
</svg>
