<?xml version="1.0" encoding="utf-8"?>
<!-- Generator: Adobe Illustrator 23.1.0, SVG Export Plug-In . SVG Version: 6.00 Build 0)  -->
<svg version="1.1" id="Layer_1" xmlns="http://www.w3.org/2000/svg" xmlns:xlink="http://www.w3.org/1999/xlink" x="0px" y="0px"
	 viewBox="0 0 493 432" style="enable-background:new 0 0 493 432;" xml:space="preserve">
<style type="text/css">
	.st0{fill:#1C7690;}
</style>
<g>
	<path class="st0" d="M0.59,311.86c0-34.43,0-68.87,0-103.3c0-13.21,6.42-22.24,19.28-26.7c39.65-13.74,79.33-27.4,119-41.08
		c7.55-2.6,7.58-2.59,4.7-9.59c-11.1-27.05-6.4-52.82,7.73-77.17c16.79-28.93,43.04-45.91,75.98-51.51
		c36.43-6.18,69.34,3.15,96.38,28.22c22.81,21.15,34.12,47.76,32.06,78.91c-0.81,12.16-5.87,23.42-11.14,34.4
		c-5.91,12.31-13,23.97-20.32,35.5c-1.32,2.08-4.78,4.96-3.06,6.44c2.72,2.35,6.67,3.82,11.04,2.07c8.14-3.25,16.48-6.03,24.73-9.03
		c38.47-13.99,76.94-27.99,115.41-41.98c12.1-4.4,20.63,1.35,20.63,13.91c0,69.03,0,138.06,0,207.09c0,12.59-6.44,22.13-18.49,26.3
		c-42.33,14.66-84.7,29.21-127.12,43.63c-12.69,4.31-25.44,3.94-38.18-0.52c-46.15-16.13-92.36-32.08-138.5-48.23
		c-4.16-1.46-7.76-1.41-11.93,0.12c-46.09,16.88-92.24,33.6-138.4,50.31c-9.14,3.31-15.75,0.45-19.12-7.73
		c-0.8-1.95-0.65-3.84-0.65-5.77C0.58,381.38,0.59,346.62,0.59,311.86z M27.81,398.44c1.01-0.3,1.79-0.49,2.53-0.76
		c39.1-14.16,78.18-28.38,117.33-42.43c3.34-1.2,3.4-3.21,3.39-5.96c-0.05-59.52-0.04-119.04-0.04-178.56c0-5.8-0.01-5.8-5.51-3.92
		c-38.05,13.01-76.08,26.07-114.17,38.98c-3.47,1.18-4.85,2.7-4.82,6.51c0.46,60.66,0.74,121.33,1.08,181.99
		C27.61,395.58,27.73,396.86,27.81,398.44z M466.97,263.76c-0.32,0-0.65,0-0.97,0c0-30,0.01-60.01,0-90.01c0-6.1-0.04-6.11-5.7-4.05
		c-37.65,13.67-75.27,27.4-112.97,40.93c-3.78,1.36-4.87,3.2-4.86,7.08c0.14,59.19,0.09,118.38,0.09,177.58
		c0,6.16,0.02,6.19,5.79,4.21c38.25-13.11,76.48-26.27,114.76-39.26c3.04-1.03,3.96-2.34,3.95-5.47
		C466.91,324.43,466.97,294.09,466.97,263.76z M164.52,101.95c0.43,3.04,0.12,5.95,0.78,8.9c2.52,11.31,7.42,21.69,13.12,31.66
		c18.52,32.37,41.2,61.86,65.38,90.3c2.76,3.25,3.91,2.41,6.16-0.25c15.03-17.76,29.67-35.81,42.85-54.95
		c10.83-15.71,21.48-31.54,29.32-48.98c3.16-7.04,6.28-14.2,6.65-21.95c1.25-26.14-9.87-47.16-30.63-62.3
		c-28.06-20.47-59.08-22.96-90.31-7.59C180.96,50.01,166.46,72.25,164.52,101.95z M315.66,401.29c0-2.13,0-3.73,0-5.34
		c0-31.63,0.01-63.25,0.01-94.88c0-28.02-0.06-56.04,0.06-84.06c0.01-3.08-0.7-4.89-3.94-5.49c-1.6-0.3-3.12-1.06-4.66-1.67
		c-2.22-0.88-3.82-0.65-5.44,1.5c-13.12,17.36-27.43,33.77-41.57,50.32c-8.7,10.18-17.31,10.77-26.01,0.8
		c-16.92-19.39-33.59-38.98-48.62-59.87c-2.2-3.05-3.97-6.58-7.58-9.21c0,52.7,0.04,104.8-0.1,156.89
		c-0.01,3.48,2.04,4.02,4.36,4.82c30.45,10.56,60.9,21.1,91.35,31.64C287.43,391.55,301.35,396.35,315.66,401.29z"/>
	<path class="st0" d="M246.9,88.5c11.49,0.05,20.05,8.56,20.03,19.89c-0.02,11.26-8.76,19.79-20.24,19.74
		c-11.37-0.05-20.07-8.71-20.05-19.96C226.67,96.93,235.4,88.45,246.9,88.5z"/>
</g>
</svg>
