<?xml version="1.0" encoding="utf-8"?>
<!-- Generator: Adobe Illustrator 23.1.0, SVG Export Plug-In . SVG Version: 6.00 Build 0)  -->
<svg version="1.1" id="Layer_1" xmlns="http://www.w3.org/2000/svg" xmlns:xlink="http://www.w3.org/1999/xlink" x="0px" y="0px"
	 viewBox="0 0 492 437" style="enable-background:new 0 0 492 437;" xml:space="preserve">
<style type="text/css">
	.st0{fill:#FFFFFF;}
</style>
<g>
	<path class="st0" d="M0.71,189.1c13.67-10.78,27.39-21.51,41-32.36c30.24-24.12,60.46-48.28,90.64-72.47
		c30.21-24.21,60.45-48.38,90.55-72.74c15.5-12.54,30.07-12.8,45.54-0.28c3.88,3.14,7.74,6.29,11.63,9.41
		c46.73,37.37,93.47,74.72,140.19,112.1c22.83,18.26,45.62,36.56,68.41,54.87c4.03,3.24,4.35,6.07,1.2,10.19
		c-3.22,4.21-6.5,8.39-9.86,12.5c-3.19,3.9-6.31,4.23-10.29,1.08c-10.55-8.34-21.05-16.72-31.77-25.25c-1.37,2.02-0.8,4.04-0.8,5.89
		c-0.04,75.85-0.03,151.71-0.05,227.56c0,2.63,0.3,5.31-0.55,7.89c-2.01,6.07-6.76,9.08-14.4,9.08c-104.38,0-208.76,0-313.14,0
		c-13.01,0-26.01,0-39.02,0c-10.65,0-15.43-4.75-15.43-15.5c-0.02-58.46-0.01-116.93-0.01-175.39c0-18.22,0-36.44,0-54.65
		c0-1.43,0-2.87,0-5.47c-8.42,6.73-16,12.79-23.57,18.85c-2.98,2.39-5.88,4.89-8.94,7.18c-3.47,2.59-6.76,2.34-9.67-1.04
		c-3.88-4.51-7.79-9-11.68-13.49C0.71,194.4,0.71,191.75,0.71,189.1z M81.53,286.34c0,39.41,0.07,78.82-0.1,118.23
		c-0.02,4.19,1.2,5.22,5.31,5.19c28.51-0.17,57.02-0.19,85.52,0.03c4.46,0.03,5.5-1.15,5.48-5.5c-0.17-47.19-0.13-94.39-0.12-141.58
		c0-11.19,4.88-16.02,16.06-16.03c34.34-0.01,68.69,0.31,103.03-0.16c12.04-0.16,17.56,6.21,17.48,17.42
		c-0.33,46.86-0.07,93.72-0.21,140.58c-0.01,4.1,1.02,5.27,5.22,5.24c28.84-0.18,57.68-0.14,86.52-0.01
		c3.49,0.02,4.5-0.98,4.49-4.46c-0.09-79.32-0.08-158.64-0.02-237.95c0-2.6-0.87-4.3-2.87-5.87c-9.01-7.09-17.95-14.27-26.9-21.44
		c-42.29-33.86-84.6-67.71-126.86-101.6c-7.25-5.82-8.2-5.9-15.33-0.18C187.15,79.2,136.07,120.16,84.9,161.01
		c-2.68,2.14-3.43,4.39-3.43,7.59C81.56,207.85,81.53,247.09,81.53,286.34z M204.82,341.65c0,21.03,0.09,42.05-0.08,63.08
		c-0.03,3.76,0.79,5.07,4.89,5.04c24-0.2,48.01-0.19,72.01,0c4.04,0.03,5.34-0.85,5.33-5.11c-0.17-42.05-0.15-84.11-0.02-126.16
		c0.01-3.76-0.78-5.06-4.88-5.02c-24.17,0.21-48.34,0.22-72.51,0c-4.2-0.04-4.84,1.44-4.81,5.09
		C204.9,299.6,204.83,320.62,204.82,341.65z"/>
</g>
</svg>
