<?xml version="1.0" encoding="utf-8"?>
<!-- Generator: Adobe Illustrator 23.1.0, SVG Export Plug-In . SVG Version: 6.00 Build 0)  -->
<svg version="1.1" id="Layer_1" xmlns="http://www.w3.org/2000/svg" xmlns:xlink="http://www.w3.org/1999/xlink" x="0px" y="0px"
	 viewBox="0 0 493 432" style="enable-background:new 0 0 493 432;" xml:space="preserve">
<style type="text/css">
	.st0{fill:#1C7690;}
</style>
<g>
	<path class="st0" d="M248.95,0.82c23.57,7.8,47.14,15.59,70.7,23.42c53.42,17.75,106.83,35.51,160.24,53.28
		c10.57,3.52,13.09,7,13.09,18c0,8.37,0.01,16.73-0.01,25.1c-0.03,10.13-5.02,15.1-15.28,15.1c-66.99,0.02-133.98,0.02-200.97,0.02
		c-86.32,0-172.64-0.13-258.96,0.15c-11.72,0.04-17.6-6.74-16.95-16.75c0.55-8.5,0.09-17.05,0.13-25.58
		c0.04-8.59,2.85-12.48,11.23-15.27C81.61,55.11,151.07,31.95,220.55,8.83c8.42-2.8,16.93-5.35,25.4-8.01
		C246.95,0.82,247.95,0.82,248.95,0.82z M246.7,109.09c70.99,0,141.97,0,212.96,0c1.33,0,2.67,0,4-0.02c1.03-0.02,1.8-0.2,2.22-1.43
		c1.32-3.93-0.1-6.88-4.17-8.23c-69.99-23.3-139.99-46.57-209.96-69.95c-3.57-1.19-6.69-0.93-10.13,0.22
		C172.14,52.89,102.65,76.09,33.08,99.05c-4.49,1.48-5.75,3.52-5.1,7.61c0.69,4.37,4.18,2.33,6.27,2.33
		C105.07,109.11,175.88,109.09,246.7,109.09z"/>
	<path class="st0" d="M246.96,431.99c-78.48,0-156.97,0-235.45,0c-9.13,0-10.59-1.46-10.59-10.62c0-2.79-0.05-5.58,0.02-8.37
		c0.13-5.08,2.44-7.49,7.68-7.66c5.16-0.17,10.34-0.21,15.49,0.02c3.14,0.14,3.95-0.95,3.92-3.92c-0.13-14.93-0.06-29.85-0.06-44.78
		c0-20.11,12.03-31.94,32.6-32.08c8.6-0.06,8.6-0.06,8.6-8.6c0-49.05,0.08-98.09-0.1-147.14c-0.02-4.8,1.31-6.27,6.1-5.9
		c5.3,0.42,10.67,0.32,15.98,0.03c3.86-0.21,5.14,0.88,5.09,4.87c-0.22,17.38-0.09,34.77-0.1,52.16
		c-0.01,33.14,0.05,66.27-0.11,99.4c-0.02,3.94,0.79,5.32,5.13,5.28c24.16-0.22,48.32-0.22,72.48-0.02c4.22,0.04,5.21-1.16,5.2-5.21
		c-0.13-50.19,0-100.39-0.18-150.58c-0.02-4.74,1.15-6.36,6.04-5.95c5.13,0.44,10.36,0.48,15.48-0.01c5.13-0.49,5.89,1.55,5.87,6.06
		c-0.2,32.31-0.11,64.63-0.11,96.94c0,18.04,0.11,36.09-0.09,54.13c-0.04,3.77,1.13,4.62,4.79,4.59
		c24.16-0.16,48.32-0.19,72.48,0.01c4.1,0.03,4.9-1.26,4.89-4.99c-0.11-50.36-0.01-100.72-0.18-151.08
		c-0.01-4.5,1.15-6.01,5.76-5.66c5.3,0.4,10.67,0.36,15.98,0.01c4.24-0.27,5.69,0.78,5.67,5.32c-0.2,43.14-0.13,86.28-0.13,129.42
		c0,7.55,0.18,15.1-0.09,22.63c-0.13,3.57,1.18,4.34,4.56,4.32c24.33-0.13,48.66-0.17,72.98,0.02c4.14,0.03,5.27-1.02,5.26-5.15
		c-0.14-50.03-0.08-100.06-0.07-150.09c0-6.39,0-6.39,6.36-6.4c5.17,0,10.35,0.28,15.49-0.08c4.31-0.31,5.2,1.3,5.19,5.27
		c-0.14,43.14-0.09,86.28-0.09,129.42c0,7.55,0.17,15.1-0.08,22.63c-0.12,3.52,1.11,4.63,4.56,4.34c8.15-0.7,15.94,0.68,23.04,4.84
		c9.46,5.54,13.63,14.03,13.68,24.62c0.07,15.25,0.23,30.52-0.11,45.76c-0.11,4.75,1.51,5.86,5.89,5.52
		c4.3-0.34,8.66-0.16,12.99-0.05c5.77,0.14,8.21,2.57,8.3,8.11c0.05,3.61,0.08,7.22,0,10.83c-0.12,5.39-2.47,7.6-8.06,7.73
		c-1.17,0.03-2.33,0-3.5,0C403.26,431.99,325.11,431.99,246.96,431.99z M246.95,405.3c62.14,0,124.28-0.05,186.41,0.1
		c4.43,0.01,5.59-1.1,5.5-5.43c-0.3-13.77-0.11-27.55-0.11-41.32c0-7.35,0-7.37-7.39-7.37c-59.47,0-118.94,0-178.42,0
		c-63.47,0-126.94,0.01-190.41,0.01c-7.38,0-7.38,0.02-7.38,7.37c0,13.78,0.19,27.56-0.12,41.32c-0.09,4.34,1.07,5.44,5.5,5.43
		C122.67,405.26,184.81,405.31,246.95,405.3z"/>
</g>
</svg>
