<?xml version="1.0" encoding="utf-8"?>
<!-- Generator: Adobe Illustrator 23.1.0, SVG Export Plug-In . SVG Version: 6.00 Build 0)  -->
<svg version="1.1" id="Layer_1" xmlns="http://www.w3.org/2000/svg" xmlns:xlink="http://www.w3.org/1999/xlink" x="0px" y="0px"
	 viewBox="0 0 493 432" style="enable-background:new 0 0 493 432;" xml:space="preserve">
<style type="text/css">
	.st0{fill:#1C7690;}
</style>
<g>
	<path class="st0" d="M469.5,430.77c-148.65,0-297.3,0-445.94,0c-0.21-0.27-0.38-0.69-0.64-0.78
		c-16.15-5.82-22.42-15.32-22.42-34.04c0-99.07-0.01-198.13-0.01-297.2c0-6.73,0.05-13.43,1.04-20.11
		C4.46,58.65,12.17,41.19,25.1,27.26C42.21,8.84,63.02,0.88,86.85,0.94c107.13,0.29,214.26,0.13,321.4,0.14
		c4.5,0,8.95,0.32,13.43,0.98C461.13,7.79,492.3,46,492.43,90.38c0.29,103.18,0.1,206.36,0.14,309.54c0,6.83-2.22,12.63-5.52,18.22
		C482.8,425.32,476.11,427.89,469.5,430.77z M246.51,31.52c0-0.01,0-0.01,0-0.02c-43.99,0-87.98,0.02-131.96-0.05
		c-3.2-0.01-5.06,0.09-5.05,4.88c0.17,58.13,0.14,116.27,0.05,174.4c-0.01,3.91,1,5.1,4.49,5.06c15.16-0.19,30.33-0.27,45.48,0.03
		c4.36,0.09,5.08-1.62,5.12-6.06c0.15-15.87-0.99-31.76,0.75-47.6c2.02-18.47,18.21-36.78,34.19-37.6
		c30.79-1.57,61.61-1.53,92.39-0.06c17.7,0.84,33.66,18.5,35.75,38.23c1.64,15.47,0.59,30.99,0.68,46.49
		c0.03,4.86,0.82,6.76,5.64,6.63c14.65-0.38,29.33-0.34,43.98-0.03c4.4,0.09,5.54-1.26,5.53-6.22
		c-0.17-57.39-0.18-114.77,0.01-172.16c0.02-5.15-1.36-6.06-5.58-6.04C334.15,31.58,290.33,31.52,246.51,31.52z M246.28,400.23
		c43.99,0,87.98-0.03,131.97,0.06c3.45,0.01,5.33-0.25,5.31-5.25c-0.19-47.85-0.15-95.71-0.04-143.56c0.01-3.92-1-5.1-4.49-5.06
		c-14.99,0.18-30,0.31-44.98-0.07c-4.81-0.12-5.61,1.77-5.64,6.63c-0.1,15.68,0.97,31.39-0.72,47.05
		c-2.04,18.92-18.38,36.87-35.21,37.67c-30.46,1.44-60.94,1.46-91.4,0c-17.71-0.85-33.62-18.43-35.73-38.22
		c-1.65-15.47-0.58-30.99-0.7-46.48c-0.04-4.86-0.82-6.76-5.63-6.64c-14.66,0.38-29.33,0.33-43.98,0.01
		c-4.42-0.1-5.54,1.3-5.52,6.23c0.17,47.11,0.18,94.21-0.01,141.32c-0.02,5.24,1.33,6.43,5.82,6.42
		C158.97,400.15,202.63,400.22,246.28,400.23z M191.6,231.1c0,19.62-0.02,39.25,0.01,58.87c0.02,11.77,5.49,18.19,15.9,18.23
		c25.99,0.1,51.98,0.1,77.97,0c10.53-0.04,15.96-6.34,15.97-18.12c0.02-39.25,0.02-78.5,0-117.75
		c-0.01-11.54-5.11-18.13-15.37-18.25c-26.32-0.31-52.65-0.29-78.97-0.02c-10.19,0.11-15.49,6.78-15.5,18.16
		C191.58,191.85,191.6,211.48,191.6,231.1z M82.47,123.84c0.01,0,0.01,0,0.02,0c0-28.97-0.09-57.95,0.09-86.92
		c0.03-4.48-1.05-5.76-5-5.32c-27.97,3.13-49.75,29.04-49.95,60.36c-0.25,39.63-0.02,79.26-0.15,118.89
		c-0.01,4.05,1.2,4.97,4.56,4.93c15.16-0.17,30.33-0.2,45.49,0.03c3.88,0.06,5.07-1.14,5.04-5.61
		C82.38,181.42,82.47,152.63,82.47,123.84z M410.58,123.42c-0.01,0-0.01,0-0.02,0c0,28.78,0.08,57.57-0.09,86.35
		c-0.03,4.49,0.83,6.14,5.15,6.05c14.99-0.3,29.99-0.25,44.98-0.01c3.93,0.06,5-1.2,4.98-5.62c-0.15-38.69-0.02-77.38-0.11-116.07
		c-0.08-32.97-20.56-58.56-49.6-62.46c-4.02-0.54-5.44,0.41-5.4,5.4C410.69,65.85,410.58,94.64,410.58,123.42z M82.47,323.85
		c0-23.91-0.09-47.81,0.08-71.72c0.03-4.24-0.8-5.83-4.9-5.76c-15.15,0.27-30.3,0.24-45.45,0.02c-3.72-0.05-4.75,1.1-4.74,5.31
		c0.13,47.81,0.14,95.62-0.01,143.44c-0.01,4.44,1.38,5.2,4.89,5.15c15.15-0.19,30.3-0.21,45.45,0.01c3.7,0.05,4.8-1.06,4.76-5.3
		C82.38,371.29,82.47,347.57,82.47,323.85z M465.49,323.65c0-23.91-0.07-47.82,0.07-71.72c0.02-3.88-0.52-5.61-4.53-5.54
		c-15.31,0.27-30.63,0.21-45.95,0.04c-3.34-0.04-4.6,0.86-4.59,4.93c0.12,48,0.12,96.01,0,144.01c-0.01,4.04,1.16,4.99,4.56,4.94
		c14.98-0.18,29.97-0.25,44.95,0.03c4.24,0.08,5.68-0.94,5.62-6.08C465.34,370.72,465.49,347.18,465.49,323.65z"/>
	<path class="st0" d="M260.2,231.16c0,9.88,0.24,19.78-0.05,29.65c-0.38,12.83-10.51,19.89-20.1,14.25
		c-4.92-2.89-7.1-7.91-7.15-13.79c-0.17-19.95-0.22-39.91,0-59.87c0.11-9.64,5.83-16.15,13.41-16.25
		c7.74-0.11,13.58,6.52,13.83,16.35C260.39,211.38,260.19,221.28,260.2,231.16z"/>
</g>
</svg>
