<?xml version="1.0" encoding="utf-8"?>
<!-- Generator: Adobe Illustrator 23.1.0, SVG Export Plug-In . SVG Version: 6.00 Build 0)  -->
<svg version="1.1" id="Layer_1" xmlns="http://www.w3.org/2000/svg" xmlns:xlink="http://www.w3.org/1999/xlink" x="0px" y="0px"
	 viewBox="0 0 492 437" style="enable-background:new 0 0 492 437;" xml:space="preserve">
<style type="text/css">
	.st0{fill:#818182;}
</style>
<g>
	<path class="st0" d="M301.35,272.52c0-9.78-0.07-19.56,0.04-29.35c0.03-2.75-0.36-4.34-3.74-4.12
		c-28.48,1.89-57.13,2.41-84.59,11.77c-21.87,7.45-35.14,24.2-35.01,48.09c0.09,16.97,4.14,33.06,7.8,49.33
		c2.7,11.97-1.6,22.47-11.6,28.84c-9.99,6.36-22.03,5.9-31.71-1.37c-31.5-23.67-53.37-53.95-62.35-92.49
		c-8.12-34.87-6.53-69.35,7.8-102.58c10.63-24.64,28.93-42.59,51.8-56.16c24.21-14.37,50.9-21.68,78.34-26.75
		c26.36-4.86,53-7,79.75-7.91c3.56-0.12,3.51-1.9,3.5-4.42c-0.04-18.9-0.05-37.8-0.01-56.7c0.03-12.51,5.86-21.53,17.2-25.97
		c9.09-3.56,21.4-1.79,29.85,6.67c44.51,44.57,89.05,89.11,134,133.24c12.41,12.18,13.57,29.67-0.26,43.3
		c-38.59,38.03-76.88,76.37-115.28,114.59c-6.13,6.1-12.17,12.28-18.4,18.27c-7.92,7.62-17.43,10.43-27.97,7.14
		c-10.26-3.2-17.45-10.27-18.71-21.13c-1.04-9-0.36-18.2-0.44-27.32C301.34,275.84,301.35,274.18,301.35,272.52z M158.41,353.46
		c0.07,0.14,0.1,0.3,0.21,0.41c0.06,0.06,0.22,0.02,0.34,0.02c-0.17-0.16-0.33-0.31-0.5-0.47c0.23-1.84-0.18-3.58-0.64-5.37
		c-4.38-16.88-7-33.94-6.61-51.48c0.68-30.52,14.12-52.95,41.85-66.28c21.75-10.45,45.32-13.87,69.03-16.04
		c20.39-1.86,40.86-2.42,61.35-2.29c3.86,0.02,5.09,0.94,5.06,4.95c-0.18,25.7-0.09,51.4-0.1,77.1c0,1.71,0,3.42,0,5.99
		c1.61-1.42,2.37-2.03,3.06-2.72c43.71-43.49,87.39-87.02,131.2-130.42c2.7-2.67,1.99-3.87-0.28-6.12
		c-43.45-43.05-86.82-86.19-130.23-129.27c-0.98-0.97-1.66-2.51-3.75-2.53c0,1.87,0,3.66,0,5.44c0,25.87-0.05,51.73,0.06,77.6
		c0.01,3.33-0.76,4.63-4.39,4.61c-30.96-0.19-61.83,1.26-92.49,5.94c-27.28,4.17-53.85,10.6-77.77,24.92
		c-16.56,9.91-30.02,23.02-38.78,40.46c-10.72,21.35-13.32,44.03-11.77,67.55c1.64,24.98,9.97,47.45,24.54,67.68
		C136.29,334.92,146.43,345.14,158.41,353.46z"/>
	<path class="st0" d="M191.98,436.04c-49.83,0-99.65,0.01-149.48,0c-24.66-0.01-42.08-17.39-42.08-42c-0.01-99,0-198.01,0.01-297.01
		c0-19.73,11.92-35.39,31.17-40.49c4.11-1.09,8.54-1.37,12.83-1.38c46.66-0.09,93.32-0.07,139.98-0.03c4.66,0,9.41,0.04,12.19,4.96
		c3.33,5.91,1.32,12.69-5.2,14.49c-12.89,3.56-25.44,7.89-39.37,7.61c-35.65-0.71-71.32-0.24-106.98-0.23
		c-12.53,0-17.61,5.06-17.61,17.48c0,97.51,0,195.02,0,292.53c0,12.17,5.05,17.15,17.36,17.15c97.99,0.01,195.97,0.01,293.96,0.01
		c12.24,0,17.48-5.29,17.49-17.64c0.01-12.6-0.03-25.21,0.02-37.81c0.03-6.63,9.49-16.06,16.21-16.28
		c4.79-0.16,8.71,2.74,10.01,7.31c0.79,2.76,0.76,5.56,0.75,8.38c-0.02,13.27,0.08,26.53-0.03,39.8
		c-0.18,21.97-13.25,38.42-33.81,42.56c-2.74,0.55-5.62,0.58-8.44,0.58C291.3,436.05,241.64,436.05,191.98,436.04z"/>
</g>
</svg>
