<?xml version="1.0" encoding="utf-8"?>
<!-- Generator: Adobe Illustrator 23.1.0, SVG Export Plug-In . SVG Version: 6.00 Build 0)  -->
<svg version="1.1" id="Layer_1" xmlns="http://www.w3.org/2000/svg" xmlns:xlink="http://www.w3.org/1999/xlink" x="0px" y="0px"
	 viewBox="0 0 1500 800" style="enable-background:new 0 0 1500 800;" xml:space="preserve">
<style type="text/css">
	.st0{fill:none;stroke:#8EC4D3;stroke-width:2;stroke-miterlimit:10;}
</style>
<g>
	<g>
		<line class="st0" x1="258.17" y1="527.93" x2="249" y2="640"/>
		<path class="st0" d="M258.17,527.93"/>
		<line class="st0" x1="258.54" y1="523.42" x2="258.48" y2="524.13"/>
		<path class="st0" d="M260.86,495.06"/>
		<polyline class="st0" points="287.16,378.11 269.54,389.03 261.49,487.43 		"/>
		<polyline class="st0" points="342.79,301.95 326.14,316.4 325.9,333.75 296.98,354.12 296.1,372.57 289.75,376.5 		"/>
		<path class="st0" d="M342.68,302.06"/>
		<polyline class="st0" points="783.72,635.42 707.25,150.36 626.01,187.8 626.01,160.72 552.74,198.95 552.74,175.85 422.11,233.2 
			348.72,296.91 		"/>
		<polygon class="st0" points="802.14,738.73 790.79,635.94 540.16,638.95 540.16,708.69 		"/>
		<line class="st0" x1="562.46" y1="638.69" x2="562.46" y2="711.26"/>
		<line class="st0" x1="597.51" y1="638.69" x2="597.51" y2="715.3"/>
		<line class="st0" x1="629" y1="637.89" x2="630.77" y2="719.14"/>
		<line class="st0" x1="669.02" y1="637.41" x2="673.6" y2="724.08"/>
		<line class="st0" x1="710.43" y1="636.91" x2="717.16" y2="729.46"/>
		<line class="st0" x1="755.92" y1="636.91" x2="764.95" y2="735.27"/>
		<line class="st0" x1="731.45" y1="192.01" x2="1160" y2="5"/>
		<line class="st0" x1="556.45" y1="638.69" x2="550.43" y2="491.69"/>
		<polyline class="st0" points="266.05,419.59 33.91,534.99 31.88,540.98 36.44,547.98 19.91,640 		"/>
		<polyline class="st0" points="260.92,494.39 212.37,510.45 212.37,503.73 261.54,486.79 		"/>
		<polyline class="st0" points="261.54,486.79 474.43,413.46 568.48,463.37 568.48,470.81 474.43,423.73 260.92,494.39 		"/>
		<polyline class="st0" points="259.8,508.71 474.43,446.03 567.07,488.51 567.07,470.1 		"/>
		<polyline class="st0" points="215.02,509.58 215.02,521.78 259.8,508.71 		"/>
		<polyline class="st0" points="474.43,413.46 474.43,423.73 474.43,446.03 		"/>
		<polyline class="st0" points="258.15,528.14 311.13,535.94 567.07,488.51 		"/>
		<line class="st0" x1="215.02" y1="521.78" x2="258.15" y2="528.14"/>
		<polyline class="st0" points="258.52,523.69 309.01,531.69 543.7,485.67 474.43,454.52 259.28,514.31 		"/>
		<polyline class="st0" points="259.28,514.31 237.5,520.37 258.52,523.69 		"/>
		<polyline class="st0" points="806.37,648.16 806.37,648.16 1491,648 		"/>
		<line class="st0" x1="857.57" y1="648.16" x2="870.52" y2="741.92"/>
		<line class="st0" x1="916.9" y1="648.16" x2="937.22" y2="747.41"/>
		<line class="st0" x1="989.69" y1="648.16" x2="1010.26" y2="755.25"/>
		<path class="st0" d="M334.39,461.7"/>
		<polyline class="st0" points="579.33,632.77 562.46,304.61 617.87,278.59 647.06,631.14 		"/>
		<polyline class="st0" points="292.62,476.08 295.29,423.55 316.8,413.46 314.94,468.4 		"/>
		<polyline class="st0" points="345.01,682.35 349.98,541.43 479.28,519.66 		"/>
		<polyline class="st0" points="352.81,679.99 356.89,546.47 479.28,528.68 		"/>
		<polyline class="st0" points="479.28,532.93 366.71,549.66 362.73,676.99 479.28,689.75 479.28,510.72 340.16,536.56 
			335.43,685.24 		"/>
		<path class="st0" d="M410.52,263.37c0-2.6-2.1-4.7-4.7-4.7c-2.6,0-4.7,2.1-4.7,4.7c0,1.75,0.96,3.27,2.38,4.08l0.02-0.54
			c0,0,1.95-1.77,4.07,0l-0.04,0.83C409.29,267.05,410.52,265.35,410.52,263.37z"/>
		
			<ellipse transform="matrix(0.5775 -0.8164 0.8164 0.5775 -69.6453 576.9758)" class="st0" cx="522.61" cy="355.77" rx="33.28" ry="24.49"/>
		<path class="st0" d="M514.64,350.14c6.61-9.34,17.64-13.04,25.36-8.8c-0.94-1.55-2.17-2.91-3.68-3.97
			c-7.74-5.47-19.94-1.52-27.26,8.83c-7.32,10.35-6.98,23.17,0.76,28.65c1.51,1.07,3.19,1.77,4.97,2.15
			C508.21,371.11,508.03,359.48,514.64,350.14z"/>
		<path class="st0" d="M537.08,366.01c5.89-8.33,6.82-18.26,2.92-24.67c-7.72-4.25-18.75-0.54-25.36,8.8
			c-6.61,9.34-6.43,20.98,0.15,26.84C522.13,378.52,531.19,374.34,537.08,366.01z"/>
		<path class="st0" d="M334.98,454.07c-2.1,0.98-4.23,1.27-6.24,0.72c-7.28-2-10.24-14.29-6.62-27.44
			c3.02-10.98,9.68-19.09,16.03-20.31"/>
		<path class="st0" d="M334.98,454.07"/>
		<path class="st0" d="M341.85,407.16c7.28,2,10.24,14.29,6.62,27.44c-2.06,7.49-5.81,13.64-10,17.18"/>
		<path class="st0" d="M340.63,413.84c0.07,0.02,0.14,0.04,0.2,0.06"/>
		<path class="st0" d="M335.19,448.24c-1.5,0.79-3,1.05-4.41,0.66c-4.99-1.37-6.87-10.33-4.21-20.01
			c2.21-8.01,6.84-14.01,11.2-15.05"/>
		<path class="st0" d="M335.19,448.24"/>
		<path class="st0" d="M340.63,413.92c4.83,1.56,6.63,10.4,4,19.95c-1.29,4.67-3.4,8.65-5.8,11.37"/>
		<line class="st0" x1="733.43" y1="202.45" x2="1186" y2="6"/>
		<polyline class="st0" points="350.51,301.37 423,237.99 545.66,188.06 545.66,212.76 616.01,176.38 616.01,204.53 709.16,162.45 
					"/>
		<polyline class="st0" points="289.57,382.5 298.97,376.99 298.97,356.01 330.17,335.02 330.17,319.1 344.64,306.45 		"/>
		<path class="st0" d="M289.57,382.5"/>
		<path class="st0" d="M286.78,384.14"/>
		<line class="st0" x1="268.9" y1="394.6" x2="286.78" y2="384.14"/>
		<line class="st0" x1="740.28" y1="245.78" x2="1299" y2="21"/>
		<path class="st0" d="M306.88,535.94"/>
		<path class="st0" d="M576.71,638.51c-0.25,0,0-5.74,0-5.74l73.81-1.61v6.46"/>
		<polyline class="st0" points="355.22,454.52 357.42,383.19 399.4,363.55 		"/>
		<polyline class="st0" points="403.06,362.24 485.38,323.46 485.97,419.59 		"/>
		<path class="st0" d="M322.81,676.99"/>
		<path class="st0" d="M540.16,708.69c-9.65-1.06-60.89-10.62-60.89-10.62v-8.32L451.4,705.5l-130.89-15.75l42.21-12.76h116.55"/>
		<line class="st0" x1="451.4" y1="705.5" x2="479.28" y2="698.07"/>
		<line class="st0" x1="365.65" y1="583.64" x2="479.28" y2="573.02"/>
		<line class="st0" x1="365.55" y1="586.83" x2="479.28" y2="576.47"/>
		<path class="st0" d="M419,541.89"/>
		<line class="st0" x1="419" y1="676.99" x2="419" y2="581.65"/>
		<line class="st0" x1="419" y1="578.66" x2="419" y2="541.89"/>
		<line class="st0" x1="422.46" y1="541.37" x2="422.46" y2="578.33"/>
		<line class="st0" x1="422.46" y1="581.65" x2="422.42" y2="676.99"/>
		<line class="st0" x1="392.19" y1="584.41" x2="391.05" y2="676.99"/>
		<line class="st0" x1="455.32" y1="578.66" x2="454.32" y2="676.99"/>
		<polygon class="st0" points="385.82,612.93 388.66,612.93 388.21,646.7 385.82,646.7 		"/>
		<polygon class="st0" points="394.32,611.57 397.15,611.57 396.71,648.25 394.32,648.25 		"/>
		<polygon class="st0" points="447.93,612.87 450.76,612.87 450.32,649.54 447.93,649.54 		"/>
		<polygon class="st0" points="457.77,610.46 460.6,610.46 460.16,651.08 457.77,651.08 		"/>
		<polyline class="st0" points="407.16,276.07 437.99,258.67 437.33,311.64 404.65,328.91 		"/>
		<polyline class="st0" points="403.05,278.08 392.73,284.43 391.4,336.33 400.81,330.5 		"/>
		<polyline class="st0" points="437.99,258.67 441.67,263.81 441.18,315.23 437.33,311.64 		"/>
		<polyline class="st0" points="391.4,337.13 396.13,339.59 400.53,337.13 		"/>
		<line class="st0" x1="404.36" y1="334.9" x2="441.18" y2="315.23"/>
		<polyline class="st0" points="399.06,371.52 365.29,387.44 363.95,451.51 		"/>
		<polyline class="st0" points="402.69,370.11 479.81,334.9 479.81,416.31 		"/>
		<polyline class="st0" points="369.97,449.44 371.31,393.42 398.62,381.97 		"/>
		<polyline class="st0" points="402.69,380.54 476.8,348.5 476.8,414.72 		"/>
		<polygon class="st0" points="374.85,395.76 374.85,418.69 394.14,411.52 395.03,387.8 		"/>
		<polyline class="st0" points="374.16,448 374.82,423.54 394.14,416.31 393.21,441.44 		"/>
		<polyline class="st0" points="402,384.51 419.81,376.42 419.81,400.72 400.84,409.04 		"/>
		<polyline class="st0" points="400.53,413.46 419.81,405.1 419.81,432.28 		"/>
		<polygon class="st0" points="423.79,374.83 423.79,399.12 446.62,389.96 447.15,364.61 		"/>
		<polyline class="st0" points="476.8,377.29 450.47,387.8 450.47,363.55 476.8,351.87 		"/>
		<polyline class="st0" points="450.47,421.71 450.47,393.95 476.8,383.59 		"/>
		<polyline class="st0" points="423.58,430.98 423.79,404.04 447.15,395.01 447.15,422.86 		"/>
		<g>
			<g>
				<path class="st0" d="M418.87,273.25c-3.46-1.4-7.75,0.27-11.77,4.05l-1.99,41.88c5.76-1.45,12.3-8.53,16.26-18.34
					C426.47,288.22,425.35,275.87,418.87,273.25z"/>
			</g>
			<g>
				<path class="st0" d="M397.92,291.38c-5.1,12.63-3.98,24.98,2.5,27.6c0.29,0.12,0.58,0.2,0.88,0.28l1.58-37.03
					C401,284.86,399.3,287.95,397.92,291.38z"/>
			</g>
			<path class="st0" d="M403.52,266.91l-0.02,0.54l-0.63,14.77l-1.58,37.03l-5.17,121.18l3.27-1.13l5.71-120.12l1.99-41.88
				l0.45-9.57l0.04-0.83C405.47,265.14,403.52,266.91,403.52,266.91z"/>
		</g>
		<path class="st0" d="M335.6,447.74c-0.67,0.2-1.33,0.22-1.95,0.05c-3.77-1.04-4.9-8.86-2.53-17.48c1.44-5.21,3.82-9.52,6.32-11.88
			"/>
		<path class="st0" d="M335.6,447.74"/>
		<path class="st0" d="M341.09,416.5c0.39-0.03,0.78,0,1.15,0.1c3.77,1.04,4.9,8.86,2.53,17.48c-1.36,4.94-3.58,9.07-5.93,11.5"/>
		<polyline class="st0" points="582.95,632.77 567.07,307.21 618.26,283.36 		"/>
		<line class="st0" x1="569.57" y1="358.44" x2="622.85" y2="338.77"/>
		<polygon class="st0" points="575.88,408.73 594.86,402.65 592.66,355.94 573.63,362.94 		"/>
		<polygon class="st0" points="597.15,354.34 599.28,401.07 622.85,393.42 619.64,345.85 		"/>
		<polygon class="st0" points="575.92,413.46 595.96,407.35 598.35,450.23 578.04,456.6 		"/>
		<polygon class="st0" points="599.37,406.18 602.6,448.77 626.49,440.94 623.57,397.8 		"/>
		<line class="st0" x1="574.78" y1="465.32" x2="632.18" y2="451.49"/>
		<line class="st0" x1="577.2" y1="514.89" x2="636.58" y2="504.6"/>
		<line class="st0" x1="578.4" y1="519.66" x2="637.07" y2="510.45"/>
		<line class="st0" x1="579.84" y1="569.05" x2="641.49" y2="563.89"/>
		<line class="st0" x1="579.84" y1="574.7" x2="641.49" y2="570.28"/>
		<polyline class="st0" points="761.08,237.42 786.54,372.04 883.18,345.85 848.05,202.45 		"/>
		<polygon class="st0" points="766.72,242.48 802.12,227.97 809.2,263.01 773.45,275.76 		"/>
		<polygon class="st0" points="806.1,226.29 813,261.07 852.98,247 844.86,210.06 		"/>
		<polygon class="st0" points="774.93,281.94 790.08,367.44 829.54,355.76 810.88,268.77 		"/>
		<polygon class="st0" points="814.86,267.17 833.53,354.56 874.33,342.31 854.16,252.88 		"/>
		<polyline class="st0" points="786.54,372.04 803.71,471.87 909.38,454.08 883.18,345.85 		"/>
		<polyline class="st0" points="830.79,648.16 830.79,642.32 952.12,642.32 952.12,648.16 		"/>
		<line class="st0" x1="909.38" y1="454.08" x2="950.26" y2="642.32"/>
		<line class="st0" x1="803.71" y1="471.87" x2="832.38" y2="642.32"/>
		<polygon class="st0" points="809.51,477.66 903.71,461.96 940.88,634.84 835.75,635.94 		"/>
		<polyline class="st0" points="311.13,535.94 308.3,685.06 333.78,685.74 		"/>
		<rect x="275.91" y="634.88" class="st0" width="33.34" height="4.25"/>
		<polyline class="st0" points="286.93,532.38 286.24,561.87 310.7,558.69 		"/>
		<polyline class="st0" points="310.64,561.87 286.24,565.06 285.45,596.27 310.04,593.46 		"/>
		<polyline class="st0" points="309.96,597.45 285.48,600.34 284.41,634.88 		"/>
		<line class="st0" x1="293.55" y1="457.79" x2="315.54" y2="450.63"/>
		<polyline class="st0" points="293.49,461.96 300.73,459.57 300.73,473.29 		"/>
		<polyline class="st0" points="303.39,472.38 303.39,458.98 315.54,454.51 		"/>
		<line class="st0" x1="265.21" y1="426.96" x2="31.88" y2="540.98"/>
		<line class="st0" x1="36.44" y1="547.98" x2="264.34" y2="448.15"/>
		<polyline class="st0" points="275.91,639.13 243.17,640.19 241.67,682.97 295.38,686.52 295.38,639.13 		"/>
		<line class="st0" x1="295.38" y1="686.52" x2="308.3" y2="681.61"/>
		<path class="st0" d="M289.66,333.14l-9.01,147.07l3.58-1.23l8.07-145.91C292.31,333.06,290.69,332.22,289.66,333.14z"/>
		<path class="st0" d="M295.18,330.08c-0.06-2.2-1.9-3.94-4.11-3.87c-2.2,0.06-3.94,1.9-3.87,4.11c0.04,1.49,0.89,2.75,2.12,3.41
			l0.01-0.46c0,0,1.61-1.55,3.46-0.1l-0.01,0.7C294.22,333.23,295.23,331.76,295.18,330.08z"/>
		<line class="st0" x1="344.46" y1="306.53" x2="337.93" y2="407.09"/>
		<path class="st0" d="M341.01,413.97l7.25-110.69c0,0-2.35-1.15-3.59,0l-0.21,3.25"/>
		<polyline class="st0" points="337.49,413.96 334.39,461.7 337.97,460.46 341.01,413.97 		"/>
		<line class="st0" x1="337.93" y1="407.09" x2="337.49" y2="413.96"/>
		<path class="st0" d="M350.66,300.29c0-2.2-1.79-3.99-3.99-3.99c-2.2,0-3.99,1.79-3.99,3.99c0,1.49,0.81,2.78,2.02,3.47l0.02-0.46
			c0,0,1.65-1.5,3.46,0l-0.03,0.7C349.61,303.41,350.66,301.97,350.66,300.29z"/>
		<path class="st0" d="M348.3,304c0,0,14.69,55.59,15.83,63.2l-6.67,9.34l-12.82-9.35"/>
		<path class="st0" d="M416.49,272.22c0,0,15.77-2.59,12.48,22.83c-3.32,25.59-28.53,26.86-22.25,26.94"/>
		<path class="st0" d="M402.38,293.79c0,0-2.7-3.3-3.58-2.85c-0.88,0.44-2.27,4.37-2.27,4.37s4.62,2.17,5.63,3.65"/>
		<path class="st0" d="M401.86,304.75c0,0-5.58-5.8-6.49-4.76c-0.91,1.04-0.65,4.6-0.65,4.6s6.44,4.33,6.93,6.21"/>
		<path class="st0" d="M406.93,280.79c0,0,4.47-4.76,5.7-3.79v7.61c0,0-5.22,2.74-5.7,4.51"/>
		<path class="st0" d="M406.26,295.05c0,0,4.7-5.4,6.38-4.16v5.99c0,0-4.8,2.36-6.38,5.88"/>
		<path class="st0" d="M405.68,307.21c0,0,4.57-5.04,6.16-4.44v6.88c0,0-4.44,1.85-6.51,4.86"/>
		<line class="st0" x1="817.16" y1="735.57" x2="1393" y2="793"/>
		<line class="st0" x1="552.02" y1="176.37" x2="562.46" y2="194.03"/>
		<line class="st0" x1="625.3" y1="161.24" x2="637.07" y2="182.9"/>
		<polyline class="st0" points="707.25,150.36 731.45,192.01 806.37,648.16 		"/>
		<line class="st0" x1="243.95" y1="525.96" x2="232.63" y2="645.5"/>
		<line class="st0" x1="250.71" y1="454.51" x2="247.19" y2="491.73"/>
		<line class="st0" x1="222.06" y1="522.82" x2="209.86" y2="644.94"/>
		<line class="st0" x1="225.55" y1="487.79" x2="224.38" y2="499.59"/>
		<line class="st0" x1="227.88" y1="464.52" x2="225.55" y2="487.79"/>
		<line class="st0" x1="201.33" y1="573.29" x2="194" y2="644.65"/>
		<line class="st0" x1="211.76" y1="471.81" x2="201.33" y2="573.29"/>
		<line class="st0" x1="193.63" y1="479.53" x2="175.7" y2="644.09"/>
		<line class="st0" x1="182.21" y1="484.54" x2="164.32" y2="643.8"/>
		<line class="st0" x1="159.37" y1="494.55" x2="141.54" y2="643.24"/>
		<line class="st0" x1="147.96" y1="499.55" x2="130.16" y2="642.95"/>
		<line class="st0" x1="123.86" y1="603.08" x2="118.77" y2="642.67"/>
		<line class="st0" x1="136.54" y1="504.56" x2="123.86" y2="603.08"/>
		<line class="st0" x1="125.12" y1="509.56" x2="107.39" y2="642.39"/>
		<line class="st0" x1="105.81" y1="518.02" x2="88.11" y2="642.1"/>
		<line class="st0" x1="113.59" y1="514.57" x2="95.89" y2="642.1"/>
		<line class="st0" x1="78.19" y1="530.13" x2="62.04" y2="641.54"/>
		<line class="st0" x1="71.82" y1="532.92" x2="55.44" y2="641.26"/>
		<line class="st0" x1="82.23" y1="605.52" x2="76.98" y2="641.82"/>
		<line class="st0" x1="94.14" y1="523.14" x2="82.23" y2="605.52"/>
		<line class="st0" x1="81.82" y1="565.69" x2="70.38" y2="641.54"/>
		<line class="st0" x1="87.82" y1="525.91" x2="81.82" y2="565.69"/>
		<line class="st0" x1="64.47" y1="536.15" x2="47.9" y2="640.69"/>
		<line class="st0" x1="48.44" y1="599.45" x2="41.58" y2="640.97"/>
		<line class="st0" x1="58.47" y1="538.78" x2="48.44" y2="599.45"/>
		<line class="st0" x1="52.01" y1="541.6" x2="34.82" y2="640.69"/>
		<line class="st0" x1="45.2" y1="544.59" x2="27.68" y2="640.41"/>
		<line class="st0" x1="50.99" y1="547.49" x2="44.34" y2="550.01"/>
		<line class="st0" x1="63.63" y1="542.71" x2="57.44" y2="545.05"/>
		<line class="st0" x1="77.1" y1="537.62" x2="70.75" y2="540.02"/>
		<line class="st0" x1="92.91" y1="531.65" x2="86.59" y2="534.03"/>
		<line class="st0" x1="112.24" y1="524.34" x2="104.5" y2="527.27"/>
		<line class="st0" x1="134.8" y1="515.81" x2="123.73" y2="520"/>
		<line class="st0" x1="157.87" y1="507.09" x2="146.2" y2="511.5"/>
		<line class="st0" x1="192.03" y1="494.18" x2="180.01" y2="498.72"/>
		<line class="st0" x1="226.21" y1="481.26" x2="209.9" y2="487.43"/>
		<line class="st0" x1="262.64" y1="467.49" x2="249" y2="472.65"/>
		<line class="st0" x1="50.75" y1="548.93" x2="44.34" y2="551.16"/>
		<line class="st0" x1="62.74" y1="544.76" x2="57.16" y2="546.7"/>
		<line class="st0" x1="76.78" y1="539.87" x2="70.38" y2="542.09"/>
		<line class="st0" x1="92.51" y1="534.39" x2="86.21" y2="536.58"/>
		<line class="st0" x1="111.85" y1="527.66" x2="103.73" y2="530.48"/>
		<line class="st0" x1="134.22" y1="519.87" x2="123.23" y2="523.69"/>
		<line class="st0" x1="157.3" y1="511.83" x2="145.72" y2="515.86"/>
		<line class="st0" x1="191.38" y1="499.97" x2="179.97" y2="503.94"/>
		<line class="st0" x1="225.6" y1="488.05" x2="209.28" y2="493.73"/>
		<line class="st0" x1="261.94" y1="475.4" x2="248.13" y2="480.21"/>
		<line class="st0" x1="42.14" y1="600.88" x2="34.67" y2="602.15"/>
		<path class="st0" d="M42.14,600.88"/>
		<line class="st0" x1="55.3" y1="598.63" x2="48.44" y2="599.8"/>
		<line class="st0" x1="68.6" y1="596.35" x2="62.39" y2="597.41"/>
		<line class="st0" x1="83.93" y1="593.73" x2="77.42" y2="594.84"/>
		<line class="st0" x1="103.22" y1="590.43" x2="95.29" y2="591.79"/>
		<line class="st0" x1="126.43" y1="586.46" x2="114.81" y2="588.45"/>
		<line class="st0" x1="148.81" y1="582.63" x2="138.26" y2="584.44"/>
		<line class="st0" x1="183.03" y1="576.78" x2="171.66" y2="578.73"/>
		<path class="st0" d="M183.03,576.78"/>
		<line class="st0" x1="217.25" y1="570.93" x2="201.33" y2="573.65"/>
		<line class="st0" x1="255.18" y1="564.44" x2="240.06" y2="567.03"/>
		<line class="st0" x1="45.85" y1="576.12" x2="39.09" y2="578"/>
		<line class="st0" x1="58.73" y1="572.54" x2="52.62" y2="574.24"/>
		<line class="st0" x1="72.03" y1="568.84" x2="65.62" y2="570.63"/>
		<path class="st0" d="M72.03,568.84"/>
		<line class="st0" x1="87.86" y1="564.44" x2="81.38" y2="566.25"/>
		<line class="st0" x1="107.39" y1="559.02" x2="99.05" y2="561.33"/>
		<line class="st0" x1="130.16" y1="552.77" x2="118.55" y2="555.92"/>
		<line class="st0" x1="152.65" y1="546.43" x2="141.54" y2="549.52"/>
		<line class="st0" x1="187.39" y1="536.78" x2="175.66" y2="540.04"/>
		<line class="st0" x1="221.61" y1="527.27" x2="205.85" y2="531.65"/>
		<line class="st0" x1="40.72" y1="606.67" x2="33.74" y2="607.27"/>
		<line class="st0" x1="53.76" y1="605.55" x2="47.53" y2="606.09"/>
		<line class="st0" x1="67.45" y1="604.38" x2="61.17" y2="604.92"/>
		<line class="st0" x1="82.49" y1="603.09" x2="75.75" y2="603.67"/>
		<line class="st0" x1="101.8" y1="601.43" x2="94.14" y2="602.09"/>
		<line class="st0" x1="123.91" y1="599.54" x2="112.76" y2="600.49"/>
		<line class="st0" x1="147.17" y1="597.51" x2="136.15" y2="598.49"/>
		<line class="st0" x1="181.63" y1="594.59" x2="169.73" y2="595.61"/>
		<line class="st0" x1="215.18" y1="591.71" x2="199.62" y2="593.05"/>
		<line class="st0" x1="253.22" y1="588.45" x2="238.02" y2="589.75"/>
		<line class="st0" x1="40.72" y1="608.65" x2="33.4" y2="609.13"/>
		<line class="st0" x1="53.38" y1="607.83" x2="47.19" y2="608.23"/>
		<line class="st0" x1="67.33" y1="606.92" x2="60.53" y2="607.37"/>
		<line class="st0" x1="82.23" y1="605.96" x2="76.1" y2="606.35"/>
		<line class="st0" x1="100.9" y1="604.74" x2="93.29" y2="605.24"/>
		<line class="st0" x1="124.14" y1="603.21" x2="112.43" y2="603.99"/>
		<line class="st0" x1="146.52" y1="601.78" x2="135.47" y2="602.49"/>
		<line class="st0" x1="180.97" y1="599.54" x2="169.2" y2="600.3"/>
		<line class="st0" x1="215.01" y1="597.32" x2="198.16" y2="598.42"/>
		<line class="st0" x1="252.69" y1="594.88" x2="237.77" y2="595.85"/>
		<polyline class="st0" points="243.63,645.5 15.5,639.89 12.76,659.9 241.73,681.47 		"/>
		<line class="st0" x1="282.3" y1="531.69" x2="278.18" y2="634.88"/>
		<polyline class="st0" points="790.79,635.94 806.41,648.57 817.16,735.57 802.42,738.83 		"/>
		<line class="st0" x1="221.61" y1="644.65" x2="219.01" y2="679.34"/>
		<line class="st0" x1="184.25" y1="644.09" x2="181.73" y2="676.2"/>
		<line class="st0" x1="151.76" y1="643.28" x2="149.54" y2="672.82"/>
		<line class="st0" x1="124.97" y1="642.32" x2="122.76" y2="670.41"/>
		<line class="st0" x1="101.47" y1="641.59" x2="99.25" y2="668.16"/>
		<line class="st0" x1="81.79" y1="641.26" x2="79.57" y2="666.39"/>
		<line class="st0" x1="65.58" y1="640.97" x2="63.36" y2="665.24"/>
		<line class="st0" x1="51.08" y1="640.41" x2="48.86" y2="663.79"/>
		<line class="st0" x1="38.17" y1="640.41" x2="35.95" y2="662.25"/>
		<line class="st0" x1="863.03" y1="564.84" x2="874.33" y2="635.42"/>
		<line class="st0" x1="855.1" y1="515.35" x2="862.22" y2="559.81"/>
		<line class="st0" x1="847.96" y1="471.25" x2="854.11" y2="510.01"/>
		<line class="st0" x1="870.71" y1="564.32" x2="883.6" y2="635.42"/>
		<line class="st0" x1="861.76" y1="514.55" x2="869.69" y2="558.43"/>
		<line class="st0" x1="853.85" y1="470.27" x2="860.75" y2="509.08"/>
		<line class="st0" x1="861.15" y1="508.42" x2="912.1" y2="500.98"/>
		<line class="st0" x1="815.71" y1="515.06" x2="853.85" y2="509.48"/>
		<line class="st0" x1="862.14" y1="515.04" x2="914.37" y2="509.5"/>
		<line class="st0" x1="816.47" y1="519.66" x2="855.75" y2="515.7"/>
		<line class="st0" x1="869.13" y1="559.01" x2="923.36" y2="553.34"/>
		<line class="st0" x1="823.8" y1="563.89" x2="862.85" y2="559.83"/>
		<line class="st0" x1="870.32" y1="564.84" x2="924.89" y2="560.44"/>
		<line class="st0" x1="824.59" y1="568.6" x2="863.13" y2="565.47"/>
		<line class="st0" x1="1062.23" y1="648.16" x2="1089.07" y2="762.84"/>
	</g>
	<line class="st0" x1="937.22" y1="166.59" x2="1069.88" y2="648.16"/>
</g>
</svg>
