<?xml version="1.0" encoding="utf-8"?>
<!-- Generator: Adobe Illustrator 23.1.0, SVG Export Plug-In . SVG Version: 6.00 Build 0)  -->
<svg version="1.1" id="Layer_1" xmlns="http://www.w3.org/2000/svg" xmlns:xlink="http://www.w3.org/1999/xlink" x="0px" y="0px"
	 viewBox="0 0 210 383" style="enable-background:new 0 0 210 383;" xml:space="preserve">
<style type="text/css">
	.st0{fill:#BFBFBF;}
</style>
<g>
	<path class="st0" d="M2,364c3.17-5.31,7.69-9.42,12.01-13.74c51.6-51.59,103.15-103.23,154.86-154.72
		c3.32-3.31,3.63-4.91,0.13-8.39C115.68,134.21,62.54,81.1,9.38,28c-1.87-1.87-3.73-3.85-5.12-6.07c-2.11-3.36-2.11-6.98,0.26-10.29
		c1.35-1.88,2.94-3.61,4.58-5.25c7.14-7.14,12.04-7.2,19.11-0.16C45.44,23.4,62.63,40.6,79.84,57.79
		c41.15,41.08,82.3,82.15,123.44,123.23c8.19,8.18,8.17,12.25-0.09,20.51C146.18,258.54,89.17,315.56,32.13,372.55
		c-3.26,3.26-6.75,6.3-10.14,9.45c-2,0-4,0-6,0c-5.76-3.98-10.79-8.64-14-15C2,366,2,365,2,364z"/>
</g>
</svg>
