<?xml version="1.0" encoding="utf-8"?>
<!-- Generator: Adobe Illustrator 23.1.0, SVG Export Plug-In . SVG Version: 6.00 Build 0)  -->
<svg version="1.1" id="Layer_1" xmlns="http://www.w3.org/2000/svg" xmlns:xlink="http://www.w3.org/1999/xlink" x="0px" y="0px"
	 viewBox="0 0 210 383" style="enable-background:new 0 0 210 383;" xml:space="preserve">
<style type="text/css">
	.st0{fill:#BFBFBF;}
</style>
<path class="st0" d="M65.76,382.31h-13.9c-4.51,0-8.17-3.66-8.17-8.17V10.17C43.7,5.66,47.35,2,51.86,2h13.9
	c4.51,0,8.17,3.66,8.17,8.17v363.98C73.93,378.66,70.27,382.31,65.76,382.31z"/>
<path class="st0" d="M157.76,382.31h-13.9c-4.51,0-8.17-3.66-8.17-8.17V10.17c0-4.51,3.66-8.17,8.17-8.17h13.9
	c4.51,0,8.17,3.66,8.17,8.17v363.98C165.93,378.66,162.27,382.31,157.76,382.31z"/>
</svg>
