<?xml version="1.0" encoding="utf-8"?>
<!-- Generator: Adobe Illustrator 23.1.0, SVG Export Plug-In . SVG Version: 6.00 Build 0)  -->
<svg version="1.1" id="Layer_1" xmlns="http://www.w3.org/2000/svg" xmlns:xlink="http://www.w3.org/1999/xlink" x="0px" y="0px"
	 viewBox="0 0 252 487" style="enable-background:new 0 0 252 487;" xml:space="preserve">
<style type="text/css">
	.st0{fill:#1C7690;}
	.st1{fill:none;stroke:#1C7690;stroke-width:4;stroke-linecap:round;stroke-linejoin:round;stroke-miterlimit:10;}
</style>
<g>
	<g>
		<path class="st0" d="M73.36,7.13c7.94,17.96,15.95,37.49,16.72,41.71c-0.8,3.09,0.14,8.46,2.83,16.03
			c0.02,0.06,0.05,0.12,0.07,0.18l56.31,136.75c0.02,0.04,0.03,0.08,0.05,0.11c9.85,21.98,25.85,58.32,26.84,62.28
			c1.4,5.63,11.33,25.01,13.78,29.75c0.2,8.31,1.67,69.94,1.16,85.42c-0.08,2.39-0.43,3.56-0.65,4.07c-1.31-0.43-3.96-2.5-5.79-4.59
			c-18.83-22.52-49.19-59.41-52.45-64.9c-0.48-1.94-2.65-6.6-11.24-24.42c-5.57-11.57-12.51-25.96-17.94-38.01
			c-7.95-17.62-9.09-22.31-9.22-23.49c0.62-2.48-0.18-9.32-26.91-73.84c-11.37-27.44-28.29-67.06-29.2-68.37
			c0.03,0.05,0.08,0.11,0.13,0.2c-0.93-1.68-8.57-19.53-11.52-27.5c-2.38-6.43-8.85-22.8-11.38-29.2c2.09-1.86,5.44-4.77,8.34-7.02
			c2.56-1.99,3.61-2.56,3.91-2.7c3.4-0.63,23.81-5.69,28.65-10.25C57.26,8.33,64.07,7.27,73.36,7.13 M75.33,3.12
			c-3.32,0-18.95,0.17-22.23,3.31c-3.68,3.52-23.85,8.84-26.78,9.26c-0.98,0.14-3.11,1.59-5.51,3.45
			c-4.78,3.71-10.63,9.06-10.63,9.06s9.43,23.76,12.37,31.71c2.95,7.95,11.11,27.11,11.86,28.19
			c0.76,1.09,57.54,132.85,55.46,139.13c-2.08,6.28,38.69,85.33,38.44,87.76c-0.25,2.43,53.3,66.46,53.3,66.46s5.27,6.07,9.23,6.07
			c2.24,0,4.05-1.94,4.25-8.02c0.55-16.83-1.18-86.57-1.18-86.57s-12.44-23.92-13.88-29.7c-1.44-5.77-27.07-62.95-27.07-62.95
			L96.67,63.53c0,0-4.04-11.38-2.62-13.98c1.42-2.6-18.1-46.43-18.1-46.43S75.73,3.12,75.33,3.12L75.33,3.12z"/>
	</g>
	<path class="st1" d="M180.31,378.51c0,0,6.11-7.91,14.11-5.86"/>
	<path class="st1" d="M129.46,315.23c0,0,6.48-2.39,17,9.25c0,0,7.53-35.79,35.12-14.66c0,0,4.32-18.72,11.1-17.31"/>
	<path class="st1" d="M36.41,89.42c0,0,11.7-9.67,20.95-10.61c9.25-0.94,18.99-7.94,18.99-7.94s14.65-7.86,19.81-6.66"/>
	<path class="st1" d="M20.42,21.23c0,0,30.86,71.29,36.64,83.74s92.71,224.95,92.71,224.95l31.97,47.03"/>
	<path class="st1" d="M57.21,5.57c0,0,22.43,48.93,24.24,56.58C83.26,69.8,89.49,83,92.92,94.4c3.43,11.4,88.83,213.52,90.35,221.92
		c1.52,8.41,9.56,55.71,9.56,55.71"/>
	<path class="st1" d="M5.64,459.27c0,0,39.31,19.43,76.81-27.28s81.51-21.68,81.51-21.68s51.8,29.28,77.31-30.05"/>
	<path class="st1" d="M10.81,478.98c0,0,39.31,19.43,76.81-27.28s81.51-21.68,81.51-21.68s51.8,29.28,77.31-30.05"/>
</g>
</svg>
