<?xml version="1.0" encoding="utf-8"?>
<!-- Generator: Adobe Illustrator 23.1.0, SVG Export Plug-In . SVG Version: 6.00 Build 0)  -->
<svg version="1.1" id="Layer_1" xmlns="http://www.w3.org/2000/svg" xmlns:xlink="http://www.w3.org/1999/xlink" x="0px" y="0px"
	 viewBox="0 0 210 383" style="enable-background:new 0 0 210 383;" xml:space="preserve">
<style type="text/css">
	.st0{fill:#BFBFBF;}
</style>
<g>
	<path class="st0" d="M188.96,382.79c-10.03-8.52-18.9-18.22-28.19-27.49C111,305.62,61.3,255.87,11.56,206.15
		c-3.84-3.84-7.89-7.51-10.58-12.33c0-1,0-2,0-3c2.37-4.81,6.15-8.46,9.88-12.19C67.68,121.95,124.46,65.24,181.26,8.54
		c1.53-1.53,3.04-3.1,4.74-4.42c3.67-2.87,7.57-3.16,11.54-0.52c5.04,3.35,8.84,7.77,11.42,13.24c0,0.67,0,1.33,0,2
		c-2.25,4.65-5.68,8.34-9.31,11.96C147.06,83.22,94.55,135.71,41.92,188.08c-3.07,3.06-3.49,4.65-0.13,7.99
		c52.75,52.49,105.33,105.15,157.98,157.73c3.62,3.61,7.11,7.24,9.19,11.99c0,0.67,0,1.33,0,2c-3.65,6.35-8.18,11.82-15,15
		C192.3,382.79,190.63,382.79,188.96,382.79z"/>
</g>
</svg>
