<?xml version="1.0" encoding="utf-8"?>
<!-- Generator: Adobe Illustrator 23.1.0, SVG Export Plug-In . SVG Version: 6.00 Build 0)  -->
<svg version="1.1" id="Layer_1" xmlns="http://www.w3.org/2000/svg" xmlns:xlink="http://www.w3.org/1999/xlink" x="0px" y="0px"
	 viewBox="0 0 274 165" style="enable-background:new 0 0 274 165;" xml:space="preserve">
<style type="text/css">
	.st0{fill:#BEBEBE;}
</style>
<g>
	<path class="st0" d="M0,132.98c0,3,0,6,0,9c0.3,0.35,0.78,0.65,0.89,1.05c3.89,14.6,13.18,21.99,27.94,21.99
		c72.28,0.02,144.57-0.01,216.85,0.02c10.3,0,18.23-4.11,23.82-12.84c2.05-3.2,2.79-6.9,4.47-10.23c0-3,0-6,0-9
		c-3.23-9.81-10.42-16.62-17.49-23.63c-30.28-30.02-60.46-60.12-90.6-90.28c-7.37-7.37-14.31-15.2-24.9-18.07c-3,0-6,0-9,0
		c-12.56,4.51-20.5,14.82-29.49,23.73c-28.16,27.91-56.15,55.99-84.3,83.9C10.9,115.87,3.38,122.86,0,132.98z M246.1,137.56
		c-73.08,0-145.36,0-217.64,0c0.62-1.9,1.93-2.7,2.98-3.75c33.94-33.9,67.91-67.78,101.71-101.83c3.12-3.15,4.63-3.08,7.71,0.02
		c33.8,34.04,67.77,67.92,101.69,101.84C243.6,134.9,244.6,135.99,246.1,137.56z"/>
</g>
</svg>
